<?xml version="1.0" encoding="utf-8"?>
<!-- Svg Vector Icons : http://www.onlinewebfonts.com/icon -->
<!DOCTYPE svg PUBLIC "-//W3C//DTD SVG 1.1//EN" "http://www.w3.org/Graphics/SVG/1.1/DTD/svg11.dtd">
<svg version="1.1" xmlns="http://www.w3.org/2000/svg" xmlns:xlink="http://www.w3.org/1999/xlink" x="0px" y="0px" viewBox="0 0 1000 1000" enable-background="new 0 0 1000 1000" xml:space="preserve">
<metadata> Svg Vector Icons : http://www.onlinewebfonts.com/icon </metadata>
<g><path d="M530,500L983.8,45.2c8.3-8.3,8.2-21.7-0.1-30c-8.4-8.3-21.8-8.3-30.1,0.1L500,469.9L46.4,15.2c-8.3-8.3-21.8-8.4-30.1-0.1c-8.3,8.3-8.3,21.7-0.1,30L470,500L16.2,954.8c-8.3,8.3-8.3,21.7,0.1,30c4.2,4.1,9.6,6.2,15,6.2c5.5,0,10.9-2.1,15.1-6.3L500,530.1l453.7,454.7c4.1,4.2,9.6,6.3,15.1,6.3c5.4,0,10.8-2,15-6.2c8.3-8.3,8.3-21.7,0.1-30L530,500L530,500z"/></g>
</svg>